PathFileType        4      (X/Y/Z)      Abduction.trc         																																																																												
DataRate	CameraRate	NumFrames	NumMarkers	Units	OrigDataRate	OrigDataStartFrame	OrigNumFrames																																																																					
100	100	7	25	mm	100	498	1991																																																																					
Frame#	Time	AA			AI			Ant_Sh			CV7			GH			LAH			Lat_Sh			LCAJ			LPH			Post_Sh			RAH			RCAJ			RHLE			RHME			RPH			RUA			SJN			SXS			TS			TV8			centelbow			centpxt8			centijc7			centLPHRPH			ScapulaThoracicContactPt		
		X1	Y1	Z1	X2	Y2	Z2	X3	Y3	Z3	X4	Y4	Z4	X5	Y5	Z5	X6	Y6	Z6	X7	Y7	Z7	X8	Y8	Z8	X9	Y9	Z9	X10	Y10	Z10	X11	Y11	Z11	X12	Y12	Z12	X13	Y13	Z13	X14	Y14	Z14	X15	Y15	Z15	X16	Y16	Z16	X17	Y17	Z17	X18	Y18	Z18	X19	Y19	Z19	X20	Y20	Z20	X21	Y21	Z21	X22	Y22	Z22	X23	Y23	Z23	X24	Y24	Z24	X25	Y25	Z25
498	4.97	-460.7669067	1528.922485	-6.359602928	-519.102417	1366.041504	-82.11803436	-350.0680542	1494.772827	-7.075622082	-462.9815063	1598.279419	-198.4977875	-406.9465637	1493.838257	-9.319091797	-251.6623688	1775.114136	-247.5170593	-408.415802	1509.541992	21.38869858	-396.901947	1562.834229	-382.2047424	-454.4910278	1720.499634	-254.7657623	-489.486969	1492.481934	-12.57475185	-254.1926422	1776.812744	-149.5229645	-403.3148804	1559.910522	-32.5444603	-388.6726685	1245.640259	141.2922974	-392.9638062	1179.901367	40.62145615	-451.941925	1726.553223	-139.8461456	-473.2388306	1344.310669	44.27360153	-298.5259094	1507.116699	-201.0189972	-246.2502136	1332.975708	-200.3437653	-519.9976807	1509.867188	-118.8836899	-482.8074341	1308.548584	-204.5720367	-390.8182373	1212.770813	90.95687675	-364.5288239	1320.762146	-202.457901	-380.7537079	1552.698059	-199.7583923	-453.2164764	1723.526428	-197.305954	-499.9556681	1468.277059	-69.12044239
499	4.98	-460.1984558	1528.417114	-5.796122551	-519.0440674	1365.813477	-81.85811615	-350.3283081	1493.959717	-7.239160538	-462.8802185	1598.26123	-197.7585297	-406.4811707	1493.265869	-9.079847336	-251.6994324	1775.180298	-247.023819	-407.6844177	1508.709351	21.80686569	-396.8559265	1562.977905	-381.7673035	-454.5025024	1720.404297	-253.9575043	-489.0904236	1492.245239	-11.78777695	-254.093811	1776.841187	-149.1401978	-402.8052673	1559.633667	-31.92590332	-387.7952881	1242.614624	137.7328186	-394.2180176	1178.583252	36.4564743	-451.8449402	1726.358032	-139.0971375	-473.3777771	1343.628052	44.05557251	-298.3125305	1507.112305	-200.7502136	-246.0561981	1332.991943	-200.266037	-519.6124878	1509.803711	-118.2716446	-482.6195068	1308.529053	-204.4138794	-391.0066528	1210.598938	87.09464645	-364.3378525	1320.760498	-202.3399582	-380.5963745	1552.686768	-199.2543716	-453.1737213	1723.381165	-196.5273209	-499.618337	1468.011434	-68.6419611
500	4.99	-459.5715332	1528.029175	-5.064626694	-517.8114014	1365.748535	-82.03730774	-349.1366272	1493.529541	-6.640696049	-462.7556763	1598.250854	-197.2093353	-405.8617859	1492.935181	-8.482883453	-251.6603394	1775.290039	-246.6495667	-407.0195618	1508.043091	22.29496765	-396.8893738	1563.223145	-381.2813721	-454.4786377	1720.389771	-253.2842102	-488.7189941	1492.067139	-11.1737299	-253.9803009	1776.848389	-148.6884155	-402.2261963	1559.448853	-31.32031631	-386.897583	1239.967163	134.3062439	-395.5232849	1177.391113	32.54206085	-451.7819214	1726.393921	-138.5148315	-473.5089111	1343.1073	43.83548737	-298.1419067	1507.112671	-200.4733429	-245.8621216	1333.008057	-200.1882935	-519.2044678	1509.64624	-117.6845322	-482.4020691	1308.469604	-204.2048035	-391.210434	1208.679138	83.42415237	-364.1320953	1320.738831	-202.1965485	-380.4487915	1552.681763	-198.8413391	-453.1302795	1723.391846	-195.8995209	-498.8624674	1467.807983	-68.26215553
501	5	-459.0098267	1527.781738	-4.482795238	-517.8338623	1365.482422	-81.85657501	-348.6913452	1493.060547	-6.44081974	-462.6365662	1598.283081	-196.7075195	-405.3370667	1492.581543	-8.13383007	-251.6360474	1775.376953	-246.2120972	-406.3820801	1507.312622	22.66325951	-396.9126587	1563.384155	-380.8103027	-454.4067078	1720.36084	-252.7438507	-488.3516846	1491.879639	-10.61494923	-253.8327179	1776.856323	-148.3093414	-401.6669922	1559.262207	-30.68507004	-386.3586731	1237.289185	131.0825348	-396.9959106	1176.284058	28.77645302	-451.7178345	1726.34668	-137.8076782	-473.638855	1342.684692	43.70378494	-297.9874573	1507.151001	-200.1244965	-245.7151337	1333.018188	-200.1297455	-518.8150635	1509.478394	-117.1078873	-482.159729	1308.424438	-204.1030273	-391.6772919	1206.786621	79.9294939	-363.9374313	1320.721313	-202.1163864	-380.3120117	1552.717041	-198.416008	-453.0622711	1723.35376	-195.2757645	-498.5529175	1467.580851	-67.81575251
502	5.01	-458.5201416	1527.486572	-3.950451851	-517.93396	1365.20752	-81.70400238	-348.1735229	1492.581665	-6.124969006	-462.4996948	1598.24292	-196.2864227	-404.7450867	1492.228516	-7.758178711	-251.6403351	1775.492554	-245.745163	-405.7226563	1506.681274	22.97970581	-396.9684753	1563.499634	-380.3666382	-454.3699951	1720.304321	-252.0886536	-488.0585327	1491.70874	-10.16342831	-253.7013397	1776.864136	-147.8047485	-401.1350403	1559.067505	-30.04456139	-385.6436157	1234.74292	128.1307831	-398.6572571	1175.211914	25.26770592	-451.5710144	1726.133789	-137.0645752	-473.7738037	1342.341797	43.59409714	-297.8821716	1507.155151	-199.817276	-245.5683289	1333.063354	-200.1173553	-518.3614502	1509.327148	-116.5713882	-481.9701843	1308.390747	-204.009964	-392.1504364	1204.977417	76.6992445	-363.7692566	1320.727051	-202.0636597	-380.1909332	1552.699036	-198.0518494	-452.9705048	1723.219055	-194.5766144	-498.2718506	1467.340413	-67.40861416
503	5.02	-458.0364075	1527.219849	-3.376081467	-517.8629761	1364.881226	-81.48361969	-347.7451477	1492.081543	-5.801845551	-462.3836975	1598.238037	-195.8030243	-404.2501831	1491.920776	-7.365375519	-251.6183472	1775.554932	-245.3490906	-405.1394653	1506.204834	23.3026638	-397.1038818	1563.692505	-379.9911194	-454.329071	1720.345215	-251.4021912	-487.7086792	1491.683228	-9.674728394	-253.5236664	1776.874512	-147.2787628	-400.6539917	1558.927124	-29.4370594	-385.2147522	1232.354126	125.1303024	-400.1778259	1174.412476	22.03936958	-451.3848877	1726.031128	-136.4054413	-473.8504944	1342	43.49682236	-297.7461548	1507.150635	-199.5690765	-245.4428253	1333.074585	-200.1062622	-517.8887329	1509.06958	-116.0134888	-481.7652588	1308.385498	-204.0012512	-392.6962891	1203.383301	73.58483601	-363.6040421	1320.730042	-202.0537567	-380.0649261	1552.694336	-197.6860504	-452.8569794	1723.188171	-193.9038162	-497.9293722	1467.056885	-66.95772998
504	5.03	-457.5166626	1527.095215	-2.887157202	-517.7233887	1364.513916	-81.26504517	-347.3161926	1491.651245	-5.439597607	-462.2661133	1598.229492	-195.3395538	-403.7290955	1491.665161	-6.89897728	-251.5467529	1775.652466	-244.8962097	-404.5147095	1505.759277	23.60426712	-397.1008301	1563.890259	-379.6740723	-454.280426	1720.432373	-250.723053	-487.3182983	1491.685791	-9.061405182	-253.3613586	1776.861206	-146.8305817	-400.1984863	1558.750122	-29.00410652	-384.9656982	1230.284546	122.3232269	-401.7872009	1173.635498	18.92934227	-451.1274719	1725.935547	-135.7775116	-474.0003967	1341.67334	43.40546799	-297.6192627	1507.141235	-199.3621216	-245.2182465	1333.091064	-200.0559692	-517.4267578	1508.795166	-115.5400314	-481.5672302	1308.359131	-203.9813995	-393.3764496	1201.960022	70.6262846	-363.3927383	1320.725098	-202.0186844	-379.942688	1552.685364	-197.3508377	-452.703949	1723.18396	-193.2502823	-497.555603	1466.801432	-66.56407793
